<svg id="fi_2252393" enable-background="new 0 0 100 100" viewBox="0 0 100 100" xmlns="http://www.w3.org/2000/svg"><path d="m67.6689453 35.1308594-22.5253906 27.8291015-12.8828125-12.883789c-.390625-.390625-1.0234375-.390625-1.4140625 0s-.390625 1.0234375 0 1.4140625l13.668457 13.6689453c.1879883.1884766.4423828.2929688.7070312.2929688.0175781 0 .034668 0 .0522461-.0009766.2832031-.015625.546875-.1494141.7250977-.3701172l23.2241211-28.6923828c.347168-.4287109.28125-1.0585938-.1479492-1.40625-.4296875-.3466797-1.059082-.2802735-1.4067383.1484375z"></path><path d="m50 10.0009766c-22.1142578 0-40.1054688 17.9912109-40.1054688 40.1054688s17.991211 40.1054687 40.1054688 40.1054687 40.1054688-17.9912109 40.1054688-40.1054688-17.991211-40.1054687-40.1054688-40.1054687zm0 78.2109375c-21.0112305 0-38.1054688-17.09375-38.1054688-38.1054688s17.0942383-38.1054687 38.1054688-38.1054687 38.1054688 17.09375 38.1054688 38.1054688-17.0942383 38.1054687-38.1054688 38.1054687z"></path></svg>